<svg width="165" height="11" viewBox="0 0 165 11" fill="none" xmlns="http://www.w3.org/2000/svg">
<path d="M18.2697 6.49072H16.5603V5.80078H18.2697C18.6008 5.80078 18.8688 5.74805 19.0739 5.64258C19.279 5.53711 19.4284 5.39062 19.5222 5.20312C19.6188 5.01562 19.6672 4.80176 19.6672 4.56152C19.6672 4.3418 19.6188 4.13525 19.5222 3.94189C19.4284 3.74854 19.279 3.59326 19.0739 3.47607C18.8688 3.35596 18.6008 3.2959 18.2697 3.2959H16.758V9H15.9099V2.60156H18.2697C18.7531 2.60156 19.1618 2.68506 19.4958 2.85205C19.8298 3.01904 20.0832 3.25049 20.2561 3.54639C20.4289 3.83936 20.5153 4.1748 20.5153 4.55273C20.5153 4.96289 20.4289 5.31299 20.2561 5.60303C20.0832 5.89307 19.8298 6.11426 19.4958 6.2666C19.1618 6.41602 18.7531 6.49072 18.2697 6.49072ZM22.1079 2.25V9H21.2905V2.25H22.1079ZM25.9767 8.18701V5.73926C25.9767 5.55176 25.9387 5.38916 25.8625 5.25146C25.7892 5.11084 25.6779 5.00244 25.5285 4.92627C25.3791 4.8501 25.1945 4.81201 24.9748 4.81201C24.7697 4.81201 24.5895 4.84717 24.4343 4.91748C24.2819 4.98779 24.1618 5.08008 24.0739 5.19434C23.9889 5.30859 23.9465 5.43164 23.9465 5.56348H23.1335C23.1335 5.39355 23.1774 5.2251 23.2653 5.05811C23.3532 4.89111 23.4792 4.74023 23.6432 4.60547C23.8102 4.46777 24.0095 4.35938 24.2409 4.28027C24.4753 4.19824 24.736 4.15723 25.0231 4.15723C25.3688 4.15723 25.6735 4.21582 25.9372 4.33301C26.2038 4.4502 26.4118 4.62744 26.5612 4.86475C26.7136 5.09912 26.7897 5.39355 26.7897 5.74805V7.96289C26.7897 8.12109 26.8029 8.28955 26.8293 8.46826C26.8586 8.64697 26.9011 8.80078 26.9567 8.92969V9H26.1086C26.0676 8.90625 26.0353 8.78174 26.0119 8.62646C25.9885 8.46826 25.9767 8.32178 25.9767 8.18701ZM26.1174 6.11719L26.1262 6.68848H25.3044C25.0729 6.68848 24.8664 6.70752 24.6847 6.74561C24.5031 6.78076 24.3508 6.83496 24.2277 6.9082C24.1047 6.98145 24.0109 7.07373 23.9465 7.18506C23.882 7.29346 23.8498 7.4209 23.8498 7.56738C23.8498 7.7168 23.8835 7.85303 23.9509 7.97607C24.0182 8.09912 24.1193 8.19727 24.2541 8.27051C24.3918 8.34082 24.5602 8.37598 24.7595 8.37598C25.0085 8.37598 25.2282 8.32324 25.4186 8.21777C25.6091 8.1123 25.7599 7.9834 25.8713 7.83105C25.9855 7.67871 26.0471 7.53076 26.0558 7.38721L26.403 7.77832C26.3825 7.90137 26.3268 8.0376 26.236 8.18701C26.1452 8.33643 26.0236 8.47998 25.8713 8.61768C25.7219 8.75244 25.5431 8.86523 25.3351 8.95605C25.1301 9.04395 24.8986 9.08789 24.6408 9.08789C24.3185 9.08789 24.0358 9.0249 23.7927 8.89893C23.5524 8.77295 23.3649 8.60449 23.2302 8.39355C23.0983 8.17969 23.0324 7.94092 23.0324 7.67725C23.0324 7.42236 23.0822 7.19824 23.1818 7.00488C23.2814 6.80859 23.425 6.646 23.6125 6.51709C23.8 6.38525 24.0256 6.28564 24.2892 6.21826C24.5529 6.15088 24.8473 6.11719 25.1725 6.11719H26.1174ZM28.6415 5.26025V9H27.8285V4.24512H28.5976L28.6415 5.26025ZM28.4482 6.44238L28.1098 6.4292C28.1127 6.104 28.1611 5.80371 28.2548 5.52832C28.3486 5.25 28.4804 5.0083 28.6503 4.80322C28.8202 4.59814 29.0224 4.43994 29.2568 4.32861C29.4941 4.21436 29.7563 4.15723 30.0434 4.15723C30.2778 4.15723 30.4887 4.18945 30.6762 4.25391C30.8637 4.31543 31.0234 4.41504 31.1552 4.55273C31.29 4.69043 31.3925 4.86914 31.4628 5.08887C31.5331 5.30566 31.5683 5.5708 31.5683 5.88428V9H30.7509V5.87549C30.7509 5.62646 30.7143 5.42725 30.641 5.27783C30.5678 5.12549 30.4609 5.01562 30.3202 4.94824C30.1796 4.87793 30.0068 4.84277 29.8017 4.84277C29.5995 4.84277 29.415 4.88525 29.248 4.97021C29.0839 5.05518 28.9418 5.17236 28.8217 5.32178C28.7045 5.47119 28.6122 5.64258 28.5448 5.83594C28.4804 6.02637 28.4482 6.22852 28.4482 6.44238ZM33.3761 5.26025V9H32.5631V4.24512H33.3322L33.3761 5.26025ZM33.1828 6.44238L32.8444 6.4292C32.8473 6.104 32.8957 5.80371 32.9894 5.52832C33.0832 5.25 33.215 5.0083 33.3849 4.80322C33.5548 4.59814 33.757 4.43994 33.9914 4.32861C34.2287 4.21436 34.4909 4.15723 34.778 4.15723C35.0124 4.15723 35.2233 4.18945 35.4108 4.25391C35.5983 4.31543 35.758 4.41504 35.8898 4.55273C36.0246 4.69043 36.1271 4.86914 36.1974 5.08887C36.2677 5.30566 36.3029 5.5708 36.3029 5.88428V9H35.4855V5.87549C35.4855 5.62646 35.4489 5.42725 35.3756 5.27783C35.3024 5.12549 35.1955 5.01562 35.0548 4.94824C34.9142 4.87793 34.7414 4.84277 34.5363 4.84277C34.3341 4.84277 34.1496 4.88525 33.9826 4.97021C33.8185 5.05518 33.6764 5.17236 33.5563 5.32178C33.4391 5.47119 33.3468 5.64258 33.2795 5.83594C33.215 6.02637 33.1828 6.22852 33.1828 6.44238ZM39.2709 9.08789C38.9398 9.08789 38.6395 9.03223 38.37 8.9209C38.1034 8.80664 37.8734 8.64697 37.6801 8.44189C37.4896 8.23682 37.3432 7.99365 37.2406 7.7124C37.1381 7.43115 37.0868 7.12354 37.0868 6.78955V6.60498C37.0868 6.21826 37.1439 5.87402 37.2582 5.57227C37.3725 5.26758 37.5277 5.00977 37.724 4.79883C37.9203 4.58789 38.143 4.42822 38.392 4.31982C38.641 4.21143 38.8988 4.15723 39.1654 4.15723C39.5053 4.15723 39.7982 4.21582 40.0443 4.33301C40.2934 4.4502 40.497 4.61426 40.6552 4.8252C40.8134 5.0332 40.9306 5.2793 41.0067 5.56348C41.0829 5.84473 41.121 6.15234 41.121 6.48633V6.85107H37.5702V6.1875H40.308V6.12598C40.2963 5.91504 40.2523 5.70996 40.1762 5.51074C40.1029 5.31152 39.9857 5.14746 39.8246 5.01855C39.6635 4.88965 39.4437 4.8252 39.1654 4.8252C38.9809 4.8252 38.8109 4.86475 38.6557 4.94385C38.5004 5.02002 38.3671 5.13428 38.2558 5.28662C38.1444 5.43896 38.058 5.625 37.9965 5.84473C37.935 6.06445 37.9042 6.31787 37.9042 6.60498V6.78955C37.9042 7.01514 37.935 7.22754 37.9965 7.42676C38.0609 7.62305 38.1532 7.7959 38.2733 7.94531C38.3964 8.09473 38.5443 8.21191 38.7172 8.29688C38.893 8.38184 39.0922 8.42432 39.3148 8.42432C39.602 8.42432 39.8451 8.36572 40.0443 8.24854C40.2436 8.13135 40.4179 7.97461 40.5673 7.77832L41.0595 8.16943C40.9569 8.32471 40.8266 8.47266 40.6684 8.61328C40.5102 8.75391 40.3153 8.86816 40.0839 8.95605C39.8554 9.04395 39.5844 9.08789 39.2709 9.08789ZM44.8273 8.07715V2.25H45.6447V9H44.8976L44.8273 8.07715ZM41.6281 6.67529V6.58301C41.6281 6.21973 41.672 5.89014 41.7599 5.59424C41.8507 5.29541 41.9782 5.03906 42.1422 4.8252C42.3092 4.61133 42.507 4.44727 42.7355 4.33301C42.9669 4.21582 43.2247 4.15723 43.5089 4.15723C43.8078 4.15723 44.0685 4.20996 44.2912 4.31543C44.5167 4.41797 44.7072 4.56885 44.8624 4.76807C45.0206 4.96436 45.1452 5.20166 45.236 5.47998C45.3268 5.7583 45.3898 6.07324 45.4249 6.4248V6.8291C45.3927 7.17773 45.3297 7.49121 45.236 7.76953C45.1452 8.04785 45.0206 8.28516 44.8624 8.48145C44.7072 8.67773 44.5167 8.82861 44.2912 8.93408C44.0656 9.03662 43.8019 9.08789 43.5001 9.08789C43.2218 9.08789 42.9669 9.02783 42.7355 8.90771C42.507 8.7876 42.3092 8.61914 42.1422 8.40234C41.9782 8.18555 41.8507 7.93066 41.7599 7.6377C41.672 7.3418 41.6281 7.021 41.6281 6.67529ZM42.4454 6.58301V6.67529C42.4454 6.9126 42.4689 7.13525 42.5158 7.34326C42.5656 7.55127 42.6417 7.73438 42.7443 7.89258C42.8468 8.05078 42.9772 8.17529 43.1354 8.26611C43.2936 8.354 43.4826 8.39795 43.7023 8.39795C43.9718 8.39795 44.193 8.34082 44.3659 8.22656C44.5416 8.1123 44.6823 7.96143 44.7877 7.77393C44.8932 7.58643 44.9752 7.38281 45.0338 7.16309V6.104C44.9987 5.94287 44.9474 5.7876 44.88 5.63818C44.8156 5.48584 44.7306 5.35107 44.6251 5.23389C44.5226 5.11377 44.3952 5.01855 44.2428 4.94824C44.0934 4.87793 43.9162 4.84277 43.7111 4.84277C43.4884 4.84277 43.2965 4.88965 43.1354 4.9834C42.9772 5.07422 42.8468 5.2002 42.7443 5.36133C42.6417 5.51953 42.5656 5.7041 42.5158 5.91504C42.4689 6.12305 42.4454 6.3457 42.4454 6.58301ZM51.1544 3.16846L49.0363 9H48.1705L50.6095 2.60156H51.1676L51.1544 3.16846ZM52.9298 9L50.8072 3.16846L50.7941 2.60156H51.3522L53.7999 9H52.9298ZM52.8199 6.63135V7.32568H49.2252V6.63135H52.8199ZM56.1966 8.41992C56.39 8.41992 56.5687 8.38037 56.7328 8.30127C56.8968 8.22217 57.0316 8.11377 57.1371 7.97607C57.2425 7.83545 57.3026 7.67578 57.3172 7.49707H58.0907C58.076 7.77832 57.9808 8.04053 57.805 8.28369C57.6322 8.52393 57.4051 8.71875 57.1239 8.86816C56.8426 9.01465 56.5336 9.08789 56.1966 9.08789C55.8392 9.08789 55.5272 9.0249 55.2606 8.89893C54.9969 8.77295 54.7772 8.6001 54.6014 8.38037C54.4286 8.16064 54.2982 7.90869 54.2103 7.62451C54.1254 7.3374 54.0829 7.03418 54.0829 6.71484V6.53027C54.0829 6.21094 54.1254 5.90918 54.2103 5.625C54.2982 5.33789 54.4286 5.08447 54.6014 4.86475C54.7772 4.64502 54.9969 4.47217 55.2606 4.34619C55.5272 4.22021 55.8392 4.15723 56.1966 4.15723C56.5687 4.15723 56.8939 4.2334 57.1722 4.38574C57.4505 4.53516 57.6688 4.74023 57.827 5.00098C57.9881 5.25879 58.076 5.55176 58.0907 5.87988H57.3172C57.3026 5.68359 57.2469 5.50635 57.1503 5.34814C57.0565 5.18994 56.9276 5.06396 56.7635 4.97021C56.6024 4.87354 56.4134 4.8252 56.1966 4.8252C55.9476 4.8252 55.7381 4.875 55.5682 4.97461C55.4012 5.07129 55.2679 5.20312 55.1683 5.37012C55.0716 5.53418 55.0013 5.71729 54.9574 5.91943C54.9164 6.11865 54.8959 6.32227 54.8959 6.53027V6.71484C54.8959 6.92285 54.9164 7.12793 54.9574 7.33008C54.9984 7.53223 55.0672 7.71533 55.1639 7.87939C55.2635 8.04346 55.3968 8.17529 55.5638 8.2749C55.7337 8.37158 55.9447 8.41992 56.1966 8.41992ZM60.7555 4.24512V4.86914H58.1847V4.24512H60.7555ZM59.0548 3.08936H59.8678V7.82227C59.8678 7.9834 59.8927 8.10498 59.9425 8.18701C59.9923 8.26904 60.0567 8.32324 60.1358 8.34961C60.2149 8.37598 60.2999 8.38916 60.3907 8.38916C60.4581 8.38916 60.5284 8.3833 60.6017 8.37158C60.6778 8.35693 60.735 8.34521 60.773 8.33643L60.7774 9C60.713 9.02051 60.628 9.03955 60.5226 9.05713C60.42 9.07764 60.2955 9.08789 60.149 9.08789C59.9498 9.08789 59.7667 9.04834 59.5997 8.96924C59.4327 8.89014 59.2994 8.7583 59.1998 8.57373C59.1031 8.38623 59.0548 8.13428 59.0548 7.81787V3.08936ZM62.3524 4.24512V9H61.535V4.24512H62.3524ZM61.4735 2.98389C61.4735 2.85205 61.513 2.74072 61.5921 2.6499C61.6742 2.55908 61.7943 2.51367 61.9525 2.51367C62.1078 2.51367 62.2264 2.55908 62.3084 2.6499C62.3934 2.74072 62.4359 2.85205 62.4359 2.98389C62.4359 3.10986 62.3934 3.21826 62.3084 3.30908C62.2264 3.39697 62.1078 3.44092 61.9525 3.44092C61.7943 3.44092 61.6742 3.39697 61.5921 3.30908C61.513 3.21826 61.4735 3.10986 61.4735 2.98389ZM64.8634 8.26611L66.1641 4.24512H66.9947L65.2852 9H64.7403L64.8634 8.26611ZM63.7779 4.24512L65.1182 8.28809L65.2105 9H64.6656L62.9429 4.24512H63.7779ZM68.4202 4.24512V9H67.6029V4.24512H68.4202ZM67.5413 2.98389C67.5413 2.85205 67.5809 2.74072 67.66 2.6499C67.742 2.55908 67.8621 2.51367 68.0203 2.51367C68.1756 2.51367 68.2943 2.55908 68.3763 2.6499C68.4613 2.74072 68.5037 2.85205 68.5037 2.98389C68.5037 3.10986 68.4613 3.21826 68.3763 3.30908C68.2943 3.39697 68.1756 3.44092 68.0203 3.44092C67.8621 3.44092 67.742 3.39697 67.66 3.30908C67.5809 3.21826 67.5413 3.10986 67.5413 2.98389ZM71.4761 4.24512V4.86914H68.9053V4.24512H71.4761ZM69.7754 3.08936H70.5884V7.82227C70.5884 7.9834 70.6133 8.10498 70.6631 8.18701C70.7129 8.26904 70.7774 8.32324 70.8565 8.34961C70.9356 8.37598 71.0206 8.38916 71.1114 8.38916C71.1788 8.38916 71.2491 8.3833 71.3223 8.37158C71.3985 8.35693 71.4556 8.34521 71.4937 8.33643L71.4981 9C71.4337 9.02051 71.3487 9.03955 71.2432 9.05713C71.1407 9.07764 71.0162 9.08789 70.8697 9.08789C70.6705 9.08789 70.4874 9.04834 70.3204 8.96924C70.1534 8.89014 70.0201 8.7583 69.9205 8.57373C69.8238 8.38623 69.7754 8.13428 69.7754 7.81787V3.08936ZM73.5257 8.50781L74.8484 4.24512H75.7186L73.8113 9.73389C73.7674 9.85107 73.7088 9.97705 73.6355 10.1118C73.5652 10.2495 73.4744 10.3799 73.3631 10.5029C73.2518 10.626 73.117 10.7256 72.9588 10.8018C72.8035 10.8809 72.6175 10.9204 72.4007 10.9204C72.3362 10.9204 72.2542 10.9116 72.1546 10.894C72.055 10.8765 71.9847 10.8618 71.9436 10.8501L71.9393 10.1909C71.9627 10.1938 71.9993 10.1968 72.0491 10.1997C72.1019 10.2056 72.1385 10.2085 72.159 10.2085C72.3436 10.2085 72.5003 10.1836 72.6292 10.1338C72.7581 10.0869 72.8665 10.0063 72.9544 9.89209C73.0452 9.78076 73.1228 9.62695 73.1873 9.43066L73.5257 8.50781ZM72.5545 4.24512L73.7894 7.93652L74.0003 8.79346L73.4158 9.09229L71.6668 4.24512H72.5545Z" fill="black"/>
<path d="M99.4901 6.96533H100.334C100.29 7.36963 100.174 7.73145 99.9866 8.05078C99.7991 8.37012 99.534 8.62354 99.1912 8.81104C98.8485 8.99561 98.4207 9.08789 97.908 9.08789C97.533 9.08789 97.1917 9.01758 96.8841 8.87695C96.5794 8.73633 96.3172 8.53711 96.0975 8.2793C95.8778 8.01855 95.7078 7.70654 95.5877 7.34326C95.4705 6.97705 95.4119 6.56982 95.4119 6.12158V5.48438C95.4119 5.03613 95.4705 4.63037 95.5877 4.26709C95.7078 3.90088 95.8792 3.5874 96.1019 3.32666C96.3275 3.06592 96.5985 2.86523 96.9149 2.72461C97.2313 2.58398 97.5872 2.51367 97.9827 2.51367C98.4661 2.51367 98.8748 2.60449 99.2088 2.78613C99.5428 2.96777 99.8021 3.21973 99.9866 3.54199C100.174 3.86133 100.29 4.23193 100.334 4.65381H99.4901C99.449 4.35498 99.3729 4.09863 99.2615 3.88477C99.1502 3.66797 98.992 3.50098 98.7869 3.38379C98.5819 3.2666 98.3138 3.20801 97.9827 3.20801C97.6986 3.20801 97.4481 3.26221 97.2313 3.37061C97.0174 3.479 96.8372 3.63281 96.6907 3.83203C96.5472 4.03125 96.4388 4.27002 96.3655 4.54834C96.2923 4.82666 96.2557 5.13574 96.2557 5.47559V6.12158C96.2557 6.43506 96.2879 6.72949 96.3524 7.00488C96.4197 7.28027 96.5208 7.52197 96.6556 7.72998C96.7904 7.93799 96.9617 8.10205 97.1697 8.22217C97.3778 8.33936 97.6238 8.39795 97.908 8.39795C98.2684 8.39795 98.5555 8.34082 98.7694 8.22656C98.9832 8.1123 99.1444 7.94824 99.2528 7.73438C99.3641 7.52051 99.4432 7.26416 99.4901 6.96533ZM103.93 8.18701V5.73926C103.93 5.55176 103.892 5.38916 103.816 5.25146C103.743 5.11084 103.631 5.00244 103.482 4.92627C103.333 4.8501 103.148 4.81201 102.928 4.81201C102.723 4.81201 102.543 4.84717 102.388 4.91748C102.235 4.98779 102.115 5.08008 102.027 5.19434C101.942 5.30859 101.9 5.43164 101.9 5.56348H101.087C101.087 5.39355 101.131 5.2251 101.219 5.05811C101.307 4.89111 101.433 4.74023 101.597 4.60547C101.764 4.46777 101.963 4.35938 102.194 4.28027C102.429 4.19824 102.69 4.15723 102.977 4.15723C103.322 4.15723 103.627 4.21582 103.891 4.33301C104.157 4.4502 104.365 4.62744 104.515 4.86475C104.667 5.09912 104.743 5.39355 104.743 5.74805V7.96289C104.743 8.12109 104.756 8.28955 104.783 8.46826C104.812 8.64697 104.855 8.80078 104.91 8.92969V9H104.062C104.021 8.90625 103.989 8.78174 103.965 8.62646C103.942 8.46826 103.93 8.32178 103.93 8.18701ZM104.071 6.11719L104.08 6.68848H103.258C103.026 6.68848 102.82 6.70752 102.638 6.74561C102.457 6.78076 102.304 6.83496 102.181 6.9082C102.058 6.98145 101.964 7.07373 101.9 7.18506C101.836 7.29346 101.803 7.4209 101.803 7.56738C101.803 7.7168 101.837 7.85303 101.904 7.97607C101.972 8.09912 102.073 8.19727 102.208 8.27051C102.345 8.34082 102.514 8.37598 102.713 8.37598C102.962 8.37598 103.182 8.32324 103.372 8.21777C103.563 8.1123 103.713 7.9834 103.825 7.83105C103.939 7.67871 104.001 7.53076 104.009 7.38721L104.357 7.77832C104.336 7.90137 104.28 8.0376 104.19 8.18701C104.099 8.33643 103.977 8.47998 103.825 8.61768C103.675 8.75244 103.497 8.86523 103.289 8.95605C103.084 9.04395 102.852 9.08789 102.594 9.08789C102.272 9.08789 101.989 9.0249 101.746 8.89893C101.506 8.77295 101.318 8.60449 101.184 8.39355C101.052 8.17969 100.986 7.94092 100.986 7.67725C100.986 7.42236 101.036 7.19824 101.135 7.00488C101.235 6.80859 101.378 6.646 101.566 6.51709C101.753 6.38525 101.979 6.28564 102.243 6.21826C102.506 6.15088 102.801 6.11719 103.126 6.11719H104.071ZM106.665 2.25V9H105.848V2.25H106.665ZM109.704 9.08789C109.373 9.08789 109.072 9.03223 108.803 8.9209C108.536 8.80664 108.306 8.64697 108.113 8.44189C107.922 8.23682 107.776 7.99365 107.673 7.7124C107.571 7.43115 107.52 7.12354 107.52 6.78955V6.60498C107.52 6.21826 107.577 5.87402 107.691 5.57227C107.805 5.26758 107.96 5.00977 108.157 4.79883C108.353 4.58789 108.576 4.42822 108.825 4.31982C109.074 4.21143 109.332 4.15723 109.598 4.15723C109.938 4.15723 110.231 4.21582 110.477 4.33301C110.726 4.4502 110.93 4.61426 111.088 4.8252C111.246 5.0332 111.363 5.2793 111.439 5.56348C111.516 5.84473 111.554 6.15234 111.554 6.48633V6.85107H108.003V6.1875H110.741V6.12598C110.729 5.91504 110.685 5.70996 110.609 5.51074C110.536 5.31152 110.418 5.14746 110.257 5.01855C110.096 4.88965 109.877 4.8252 109.598 4.8252C109.414 4.8252 109.244 4.86475 109.088 4.94385C108.933 5.02002 108.8 5.13428 108.689 5.28662C108.577 5.43896 108.491 5.625 108.429 5.84473C108.368 6.06445 108.337 6.31787 108.337 6.60498V6.78955C108.337 7.01514 108.368 7.22754 108.429 7.42676C108.494 7.62305 108.586 7.7959 108.706 7.94531C108.829 8.09473 108.977 8.21191 109.15 8.29688C109.326 8.38184 109.525 8.42432 109.748 8.42432C110.035 8.42432 110.278 8.36572 110.477 8.24854C110.676 8.13135 110.851 7.97461 111 7.77832L111.492 8.16943C111.39 8.32471 111.259 8.47266 111.101 8.61328C110.943 8.75391 110.748 8.86816 110.517 8.95605C110.288 9.04395 110.017 9.08789 109.704 9.08789ZM113.076 5.26025V9H112.263V4.24512H113.032L113.076 5.26025ZM112.883 6.44238L112.544 6.4292C112.547 6.104 112.595 5.80371 112.689 5.52832C112.783 5.25 112.915 5.0083 113.085 4.80322C113.255 4.59814 113.457 4.43994 113.691 4.32861C113.928 4.21436 114.191 4.15723 114.478 4.15723C114.712 4.15723 114.923 4.18945 115.111 4.25391C115.298 4.31543 115.458 4.41504 115.59 4.55273C115.724 4.69043 115.827 4.86914 115.897 5.08887C115.968 5.30566 116.003 5.5708 116.003 5.88428V9H115.185V5.87549C115.185 5.62646 115.149 5.42725 115.075 5.27783C115.002 5.12549 114.895 5.01562 114.755 4.94824C114.614 4.87793 114.441 4.84277 114.236 4.84277C114.034 4.84277 113.849 4.88525 113.682 4.97021C113.518 5.05518 113.376 5.17236 113.256 5.32178C113.139 5.47119 113.047 5.64258 112.979 5.83594C112.915 6.02637 112.883 6.22852 112.883 6.44238ZM119.995 8.07715V2.25H120.812V9H120.065L119.995 8.07715ZM116.795 6.67529V6.58301C116.795 6.21973 116.839 5.89014 116.927 5.59424C117.018 5.29541 117.146 5.03906 117.31 4.8252C117.477 4.61133 117.674 4.44727 117.903 4.33301C118.134 4.21582 118.392 4.15723 118.676 4.15723C118.975 4.15723 119.236 4.20996 119.459 4.31543C119.684 4.41797 119.875 4.56885 120.03 4.76807C120.188 4.96436 120.313 5.20166 120.403 5.47998C120.494 5.7583 120.557 6.07324 120.592 6.4248V6.8291C120.56 7.17773 120.497 7.49121 120.403 7.76953C120.313 8.04785 120.188 8.28516 120.03 8.48145C119.875 8.67773 119.684 8.82861 119.459 8.93408C119.233 9.03662 118.969 9.08789 118.667 9.08789C118.389 9.08789 118.134 9.02783 117.903 8.90771C117.674 8.7876 117.477 8.61914 117.31 8.40234C117.146 8.18555 117.018 7.93066 116.927 7.6377C116.839 7.3418 116.795 7.021 116.795 6.67529ZM117.613 6.58301V6.67529C117.613 6.9126 117.636 7.13525 117.683 7.34326C117.733 7.55127 117.809 7.73438 117.912 7.89258C118.014 8.05078 118.145 8.17529 118.303 8.26611C118.461 8.354 118.65 8.39795 118.87 8.39795C119.139 8.39795 119.36 8.34082 119.533 8.22656C119.709 8.1123 119.85 7.96143 119.955 7.77393C120.061 7.58643 120.143 7.38281 120.201 7.16309V6.104C120.166 5.94287 120.115 5.7876 120.047 5.63818C119.983 5.48584 119.898 5.35107 119.792 5.23389C119.69 5.11377 119.563 5.01855 119.41 4.94824C119.261 4.87793 119.084 4.84277 118.878 4.84277C118.656 4.84277 118.464 4.88965 118.303 4.9834C118.145 5.07422 118.014 5.2002 117.912 5.36133C117.809 5.51953 117.733 5.7041 117.683 5.91504C117.636 6.12305 117.613 6.3457 117.613 6.58301ZM124.641 8.18701V5.73926C124.641 5.55176 124.603 5.38916 124.527 5.25146C124.454 5.11084 124.343 5.00244 124.193 4.92627C124.044 4.8501 123.859 4.81201 123.639 4.81201C123.434 4.81201 123.254 4.84717 123.099 4.91748C122.947 4.98779 122.826 5.08008 122.739 5.19434C122.654 5.30859 122.611 5.43164 122.611 5.56348H121.798C121.798 5.39355 121.842 5.2251 121.93 5.05811C122.018 4.89111 122.144 4.74023 122.308 4.60547C122.475 4.46777 122.674 4.35938 122.906 4.28027C123.14 4.19824 123.401 4.15723 123.688 4.15723C124.033 4.15723 124.338 4.21582 124.602 4.33301C124.868 4.4502 125.076 4.62744 125.226 4.86475C125.378 5.09912 125.454 5.39355 125.454 5.74805V7.96289C125.454 8.12109 125.468 8.28955 125.494 8.46826C125.523 8.64697 125.566 8.80078 125.621 8.92969V9H124.773C124.732 8.90625 124.7 8.78174 124.677 8.62646C124.653 8.46826 124.641 8.32178 124.641 8.18701ZM124.782 6.11719L124.791 6.68848H123.969C123.738 6.68848 123.531 6.70752 123.349 6.74561C123.168 6.78076 123.015 6.83496 122.892 6.9082C122.769 6.98145 122.676 7.07373 122.611 7.18506C122.547 7.29346 122.514 7.4209 122.514 7.56738C122.514 7.7168 122.548 7.85303 122.615 7.97607C122.683 8.09912 122.784 8.19727 122.919 8.27051C123.056 8.34082 123.225 8.37598 123.424 8.37598C123.673 8.37598 123.893 8.32324 124.083 8.21777C124.274 8.1123 124.425 7.9834 124.536 7.83105C124.65 7.67871 124.712 7.53076 124.72 7.38721L125.068 7.77832C125.047 7.90137 124.991 8.0376 124.901 8.18701C124.81 8.33643 124.688 8.47998 124.536 8.61768C124.386 8.75244 124.208 8.86523 124 8.95605C123.795 9.04395 123.563 9.08789 123.305 9.08789C122.983 9.08789 122.7 9.0249 122.457 8.89893C122.217 8.77295 122.03 8.60449 121.895 8.39355C121.763 8.17969 121.697 7.94092 121.697 7.67725C121.697 7.42236 121.747 7.19824 121.846 7.00488C121.946 6.80859 122.09 6.646 122.277 6.51709C122.465 6.38525 122.69 6.28564 122.954 6.21826C123.218 6.15088 123.512 6.11719 123.837 6.11719H124.782ZM127.306 4.99219V9H126.493V4.24512H127.284L127.306 4.99219ZM128.792 4.21875L128.787 4.97461C128.72 4.95996 128.655 4.95117 128.594 4.94824C128.535 4.94238 128.468 4.93945 128.392 4.93945C128.204 4.93945 128.039 4.96875 127.895 5.02734C127.751 5.08594 127.63 5.16797 127.53 5.27344C127.431 5.37891 127.352 5.50488 127.293 5.65137C127.237 5.79492 127.201 5.95312 127.183 6.12598L126.955 6.25781C126.955 5.9707 126.982 5.70117 127.038 5.44922C127.097 5.19727 127.186 4.97461 127.306 4.78125C127.426 4.58496 127.579 4.43262 127.763 4.32422C127.951 4.21289 128.173 4.15723 128.431 4.15723C128.49 4.15723 128.557 4.16455 128.633 4.1792C128.709 4.19092 128.762 4.2041 128.792 4.21875ZM135.483 8.31006V9H132.095V8.31006H135.483ZM132.267 2.60156V9H131.418V2.60156H132.267ZM135.035 5.35254V6.04248H132.095V5.35254H135.035ZM135.439 2.60156V3.2959H132.095V2.60156H135.439ZM137.502 8.26611L138.803 4.24512H139.634L137.924 9H137.379L137.502 8.26611ZM136.417 4.24512L137.757 8.28809L137.849 9H137.304L135.582 4.24512H136.417ZM142.087 9.08789C141.756 9.08789 141.456 9.03223 141.186 8.9209C140.92 8.80664 140.69 8.64697 140.497 8.44189C140.306 8.23682 140.16 7.99365 140.057 7.7124C139.955 7.43115 139.903 7.12354 139.903 6.78955V6.60498C139.903 6.21826 139.96 5.87402 140.075 5.57227C140.189 5.26758 140.344 5.00977 140.54 4.79883C140.737 4.58789 140.959 4.42822 141.208 4.31982C141.457 4.21143 141.715 4.15723 141.982 4.15723C142.322 4.15723 142.615 4.21582 142.861 4.33301C143.11 4.4502 143.313 4.61426 143.472 4.8252C143.63 5.0332 143.747 5.2793 143.823 5.56348C143.899 5.84473 143.937 6.15234 143.937 6.48633V6.85107H140.387V6.1875H143.124V6.12598C143.113 5.91504 143.069 5.70996 142.993 5.51074C142.919 5.31152 142.802 5.14746 142.641 5.01855C142.48 4.88965 142.26 4.8252 141.982 4.8252C141.797 4.8252 141.627 4.86475 141.472 4.94385C141.317 5.02002 141.184 5.13428 141.072 5.28662C140.961 5.43896 140.874 5.625 140.813 5.84473C140.751 6.06445 140.721 6.31787 140.721 6.60498V6.78955C140.721 7.01514 140.751 7.22754 140.813 7.42676C140.877 7.62305 140.97 7.7959 141.09 7.94531C141.213 8.09473 141.361 8.21191 141.534 8.29688C141.709 8.38184 141.909 8.42432 142.131 8.42432C142.418 8.42432 142.662 8.36572 142.861 8.24854C143.06 8.13135 143.234 7.97461 143.384 7.77832L143.876 8.16943C143.773 8.32471 143.643 8.47266 143.485 8.61328C143.327 8.75391 143.132 8.86816 142.9 8.95605C142.672 9.04395 142.401 9.08789 142.087 9.08789ZM145.46 5.26025V9H144.647V4.24512H145.416L145.46 5.26025ZM145.266 6.44238L144.928 6.4292C144.931 6.104 144.979 5.80371 145.073 5.52832C145.167 5.25 145.299 5.0083 145.468 4.80322C145.638 4.59814 145.841 4.43994 146.075 4.32861C146.312 4.21436 146.574 4.15723 146.862 4.15723C147.096 4.15723 147.307 4.18945 147.494 4.25391C147.682 4.31543 147.842 4.41504 147.973 4.55273C148.108 4.69043 148.211 4.86914 148.281 5.08887C148.351 5.30566 148.386 5.5708 148.386 5.88428V9H147.569V5.87549C147.569 5.62646 147.532 5.42725 147.459 5.27783C147.386 5.12549 147.279 5.01562 147.138 4.94824C146.998 4.87793 146.825 4.84277 146.62 4.84277C146.418 4.84277 146.233 4.88525 146.066 4.97021C145.902 5.05518 145.76 5.17236 145.64 5.32178C145.523 5.47119 145.43 5.64258 145.363 5.83594C145.299 6.02637 145.266 6.22852 145.266 6.44238ZM151.372 4.24512V4.86914H148.801V4.24512H151.372ZM149.671 3.08936H150.484V7.82227C150.484 7.9834 150.509 8.10498 150.559 8.18701C150.609 8.26904 150.673 8.32324 150.752 8.34961C150.831 8.37598 150.916 8.38916 151.007 8.38916C151.075 8.38916 151.145 8.3833 151.218 8.37158C151.294 8.35693 151.352 8.34521 151.39 8.33643L151.394 9C151.33 9.02051 151.245 9.03955 151.139 9.05713C151.037 9.07764 150.912 9.08789 150.766 9.08789C150.566 9.08789 150.383 9.04834 150.216 8.96924C150.049 8.89014 149.916 8.7583 149.816 8.57373C149.72 8.38623 149.671 8.13428 149.671 7.81787V3.08936ZM154.854 7.73877C154.854 7.62158 154.828 7.51318 154.775 7.41357C154.725 7.31104 154.621 7.21875 154.463 7.13672C154.308 7.05176 154.073 6.97852 153.76 6.91699C153.496 6.86133 153.257 6.79541 153.044 6.71924C152.833 6.64307 152.653 6.55078 152.503 6.44238C152.357 6.33398 152.244 6.20654 152.165 6.06006C152.086 5.91357 152.046 5.74219 152.046 5.5459C152.046 5.3584 152.087 5.18115 152.169 5.01416C152.254 4.84717 152.373 4.69922 152.525 4.57031C152.68 4.44141 152.866 4.34033 153.083 4.26709C153.3 4.19385 153.542 4.15723 153.808 4.15723C154.189 4.15723 154.514 4.22461 154.784 4.35938C155.053 4.49414 155.26 4.67432 155.403 4.8999C155.547 5.12256 155.619 5.37012 155.619 5.64258H154.806C154.806 5.51074 154.766 5.3833 154.687 5.26025C154.611 5.13428 154.498 5.03027 154.349 4.94824C154.202 4.86621 154.022 4.8252 153.808 4.8252C153.583 4.8252 153.4 4.86035 153.259 4.93066C153.121 4.99805 153.02 5.08447 152.956 5.18994C152.894 5.29541 152.863 5.40674 152.863 5.52393C152.863 5.61182 152.878 5.69092 152.907 5.76123C152.94 5.82861 152.995 5.8916 153.074 5.9502C153.153 6.00586 153.265 6.05859 153.408 6.1084C153.552 6.1582 153.735 6.20801 153.958 6.25781C154.347 6.3457 154.668 6.45117 154.92 6.57422C155.172 6.69727 155.36 6.84814 155.483 7.02686C155.606 7.20557 155.667 7.42236 155.667 7.67725C155.667 7.88525 155.623 8.07568 155.535 8.24854C155.45 8.42139 155.326 8.5708 155.162 8.69678C155.001 8.81982 154.807 8.9165 154.582 8.98682C154.359 9.0542 154.109 9.08789 153.83 9.08789C153.411 9.08789 153.057 9.01318 152.767 8.86377C152.477 8.71436 152.257 8.521 152.108 8.28369C151.958 8.04639 151.883 7.7959 151.883 7.53223H152.701C152.713 7.75488 152.777 7.93213 152.894 8.06396C153.011 8.19287 153.155 8.28516 153.325 8.34082C153.495 8.39355 153.663 8.41992 153.83 8.41992C154.053 8.41992 154.239 8.39062 154.388 8.33203C154.541 8.27344 154.656 8.19287 154.736 8.09033C154.815 7.98779 154.854 7.87061 154.854 7.73877Z" fill="black"/>
<rect x="0.5" y="0.5" width="10" height="10" rx="5" fill="white" stroke="black"/>
<rect x="79.5" y="0.5" width="10" height="10" rx="5" fill="#808080" stroke="#808080"/>
</svg>
