<svg width="430" height="932" viewBox="0 0 430 932" fill="none" xmlns="http://www.w3.org/2000/svg">
<rect width="430" height="932" fill="white"/>
<path fill-rule="evenodd" clip-rule="evenodd" d="M64.3503 840.023C62.0219 835.849 57.5518 833.025 52.4196 833.025C49.2525 833.025 46.6638 833.593 44.6531 834.728C42.6295 835.851 41.1313 837.371 40.1589 839.289C39.1864 841.208 38.7002 843.348 38.7002 845.71C38.7002 848.072 39.1864 850.219 40.1589 852.15C41.0041 853.852 42.2574 855.249 43.9187 856.343C42.263 857.412 41.0097 858.786 40.1589 860.465C39.1864 862.383 38.7002 864.523 38.7002 866.885C38.7002 869.247 39.1864 871.394 40.1589 873.325C41.1182 875.257 42.6031 876.797 44.6137 877.945C45.526 878.46 47.5219 878.836 49.4306 879.093C51.525 879.376 53.0743 877.317 52.3408 875.342C52.3408 875.342 48.5889 874.97 47.2749 874.226C45.9607 873.482 45.008 872.477 44.4167 871.211C43.8121 869.932 43.5099 868.49 43.5099 866.885C43.5099 865.28 43.8121 863.845 44.4167 862.579C45.008 861.313 45.9673 860.321 47.2945 859.603C48.6218 858.873 50.3828 858.507 52.5774 858.507C57.3238 858.507 61.1716 862.341 61.1716 867.07V891.855C61.1716 893.2 62.2661 894.29 63.6159 894.29C63.8718 894.29 64.1185 894.251 64.3503 894.178C64.5819 894.251 64.8286 894.29 65.0845 894.29C66.4345 894.29 67.5287 893.2 67.5287 891.855V870.684V870.679V867.061C67.5339 862.336 71.3797 858.507 76.1232 858.507C78.3178 858.507 80.0786 858.873 81.4058 859.603C82.7332 860.321 83.6925 861.313 84.2839 862.579C84.8884 863.845 85.1905 865.28 85.1905 866.885C85.1905 868.49 84.8884 869.932 84.2839 871.211C83.6925 872.477 82.7397 873.482 81.4256 874.226C80.1115 874.97 76.3596 875.342 76.3596 875.342C75.6036 877.377 77.1216 879.536 79.2812 879.252C81.1831 879.001 82.9654 878.578 84.0867 877.945C86.0973 876.797 87.5823 875.257 88.5416 873.325C89.514 871.394 90.0003 869.247 90.0003 866.885C90.0003 864.523 89.514 862.383 88.5416 860.465C87.6907 858.786 86.4375 857.412 84.7818 856.343C86.4432 855.249 87.6965 853.852 88.5416 852.15C89.514 850.219 90.0003 848.072 90.0003 845.71C90.0003 843.348 89.514 841.208 88.5416 839.289C87.5691 837.371 86.0711 835.851 84.0473 834.728C82.0366 833.593 79.4478 833.025 76.2808 833.025C71.1487 833.025 66.6785 835.849 64.3503 840.023ZM52.4196 854.201C52.3871 854.201 52.3548 854.201 52.3224 854.201C51.8936 854.152 48.5048 853.747 47.2749 853.051C45.9607 852.307 45.008 851.302 44.4167 850.036C43.8121 848.757 43.5099 847.315 43.5099 845.71C43.5099 844.105 43.8121 842.669 44.4167 841.403C45.008 840.138 45.9673 839.146 47.2945 838.428C48.6218 837.697 50.3828 837.332 52.5774 837.332C57.3239 837.332 61.1716 841.166 61.1716 845.895V857.367C58.803 855.39 55.7507 854.201 52.4196 854.201ZM76.2808 854.201C72.9497 854.201 69.8974 855.39 67.5287 857.367V845.895C67.5287 841.166 71.3766 837.332 76.1232 837.332C78.3178 837.332 80.0786 837.697 81.4058 838.428C82.7332 839.146 83.6925 840.138 84.2839 841.403C84.8884 842.669 85.1905 844.105 85.1905 845.71C85.1905 847.315 84.8884 848.757 84.2839 850.036C83.6925 851.302 82.7397 852.307 81.4256 853.051C80.1941 853.748 76.8348 854.153 76.417 854.201C76.3717 854.201 76.3263 854.201 76.2808 854.201Z" fill="black"/>
<path d="M64.4928 903.656C66.2389 903.656 67.6545 902.246 67.6545 900.506C67.6545 898.766 66.2389 897.355 64.4928 897.355C62.7466 897.355 61.3311 898.766 61.3311 900.506C61.3311 902.246 62.7466 903.656 64.4928 903.656Z" fill="#1AB700"/>
<path d="M64.3258 895.199C66.0719 895.199 67.4875 893.789 67.4875 892.049C67.4875 890.309 66.0719 888.898 64.3258 888.898C62.5796 888.898 61.1641 890.309 61.1641 892.049C61.1641 893.789 62.5796 895.199 64.3258 895.199Z" fill="black"/>
<path d="M34.1617 839.3C35.9079 839.3 37.3234 837.89 37.3234 836.15C37.3234 834.41 35.9079 833 34.1617 833C32.4155 833 31 834.41 31 836.15C31 837.89 32.4155 839.3 34.1617 839.3Z" fill="#FFB800"/>
<path d="M133.342 865.633H131.26V864.08H133.342C133.626 864.08 133.856 864.033 134.032 863.937C134.208 863.842 134.337 863.71 134.417 863.542C134.502 863.37 134.544 863.177 134.544 862.963C134.544 862.734 134.502 862.522 134.417 862.327C134.337 862.132 134.208 861.975 134.032 861.857C133.856 861.735 133.626 861.673 133.342 861.673H132.019V868.465H130V860.12H133.342C134.013 860.12 134.59 860.243 135.073 860.487C135.56 860.732 135.934 861.068 136.195 861.496C136.455 861.92 136.586 862.405 136.586 862.952C136.586 863.49 136.455 863.96 136.195 864.361C135.934 864.763 135.56 865.076 135.073 865.301C134.59 865.523 134.013 865.633 133.342 865.633ZM150.156 866.917V868.465H145.923V866.917H150.156ZM146.642 860.12V868.465H144.623V860.12H146.642ZM161.621 861.874L159.579 868.465H157.411L160.488 860.12H161.863L161.621 861.874ZM163.312 868.465L161.265 861.874L161 860.12H162.392L165.487 868.465H163.312ZM163.232 865.353V866.906H158.935V865.353H163.232ZM180.046 860.12V868.465H178.033L175.071 863.272V868.465H173.052V860.12H175.071L178.033 865.313V860.12H180.046ZM195.267 860.12V868.465H193.254L190.292 863.272V868.465H188.273V860.12H190.292L193.254 865.313V860.12H195.267ZM209.257 866.917V868.465H204.794V866.917H209.257ZM205.513 860.12V868.465H203.494V860.12H205.513ZM208.682 863.433V864.929H204.794V863.433H208.682ZM209.274 860.12V861.673H204.794V860.12H209.274ZM217.036 860.12H220.331C220.976 860.12 221.535 860.216 222.011 860.407C222.486 860.598 222.853 860.881 223.109 861.255C223.37 861.629 223.5 862.092 223.5 862.642C223.5 863.12 223.426 863.519 223.276 863.84C223.127 864.161 222.918 864.426 222.649 864.636C222.385 864.843 222.076 865.013 221.723 865.146L221.062 865.519H218.295L218.284 863.966H220.331C220.588 863.966 220.801 863.92 220.97 863.828C221.139 863.736 221.265 863.607 221.35 863.439C221.438 863.267 221.482 863.062 221.482 862.825C221.482 862.585 221.438 862.378 221.35 862.207C221.261 862.035 221.131 861.903 220.958 861.811C220.79 861.719 220.581 861.673 220.331 861.673H219.055V868.465H217.036V860.12ZM221.62 868.465L219.768 864.774L221.907 864.763L223.782 868.379V868.465H221.62ZM237.433 866.917V868.465H232.97V866.917H237.433ZM233.689 860.12V868.465H231.67V860.12H233.689ZM236.858 863.433V864.929H232.97V863.433H236.858ZM237.451 860.12V861.673H232.97V860.12H237.451ZM252.062 864.006V867.433C251.92 867.59 251.702 867.758 251.406 867.937C251.115 868.113 250.747 868.264 250.302 868.39C249.857 868.516 249.334 868.579 248.732 868.579C248.176 868.579 247.671 868.491 247.219 868.316C246.766 868.136 246.377 867.874 246.051 867.53C245.729 867.183 245.48 866.759 245.303 866.258C245.131 865.754 245.045 865.177 245.045 864.528V864.063C245.045 863.414 245.133 862.837 245.309 862.332C245.486 861.828 245.733 861.404 246.051 861.06C246.373 860.712 246.751 860.449 247.184 860.269C247.621 860.09 248.101 860 248.622 860C249.393 860 250.02 860.122 250.503 860.367C250.986 860.607 251.353 860.942 251.602 861.37C251.851 861.794 252.003 862.285 252.056 862.843H250.118C250.08 862.567 250.006 862.334 249.899 862.143C249.796 861.949 249.646 861.801 249.45 861.702C249.255 861.599 249.002 861.548 248.691 861.548C248.45 861.548 248.229 861.599 248.03 861.702C247.834 861.805 247.668 861.962 247.53 862.172C247.391 862.378 247.284 862.638 247.207 862.952C247.135 863.265 247.098 863.631 247.098 864.052V864.528C247.098 864.944 247.133 865.309 247.202 865.622C247.274 865.935 247.382 866.197 247.524 866.407C247.669 866.613 247.853 866.77 248.076 866.877C248.302 866.98 248.569 867.032 248.875 867.032C249.09 867.032 249.274 867.015 249.428 866.98C249.581 866.942 249.708 866.896 249.807 866.843C249.911 866.785 249.989 866.732 250.043 866.682V865.387H248.639V864.006H252.062ZM261.71 860.12L263.251 863.742L264.798 860.12H266.972L264.28 865.467V868.465H262.227V865.467L259.529 860.12H261.71Z" fill="black"/>
</svg>
